<svg width="192" height="192" viewBox="0 0 192 192" fill="none" xmlns="http://www.w3.org/2000/svg">
<g clip-path="url(#clip0_165_4)">
<circle cx="96" cy="96" r="96" fill="#8BBF63"/>
<path d="M60.129 45.0408L57.1071 40.2972C56.3782 39.1527 54.8753 38.7914 53.7038 39.4756C53.689 39.4842 53.6746 39.4928 53.6598 39.5014C52.4253 40.2234 52.0394 41.8277 52.8078 43.0334L55.8303 47.7781C56.5242 48.8671 58.0483 49.1368 59.2352 48.3805C60.4221 47.6241 60.8223 46.1286 60.1284 45.0396L60.129 45.0408Z" fill="#EBEBEB"/>
<path d="M37.0337 64.6958L32.2673 61.7105C31.1176 60.9903 29.6049 61.3092 28.8411 62.4308C28.8314 62.4451 28.8222 62.4589 28.8125 62.4732C28.0081 63.6555 28.3488 65.2701 29.5603 66.0287L34.3279 69.0151C35.422 69.7004 36.9146 69.2888 37.6612 68.0967C38.4084 66.9041 38.1273 65.3817 37.0332 64.6964L37.0337 64.6958Z" fill="#EBEBEB"/>
<path d="M28.1402 87.5594L22.516 87.5794C21.1591 87.5846 20.0506 88.6615 20.0037 90.0173C20.0031 90.0345 20.0026 90.0511 20.002 90.0683C19.9533 91.4974 21.103 92.6808 22.5326 92.6757L28.1585 92.6556C29.4496 92.651 30.4922 91.5059 30.4871 90.0992C30.4819 88.6919 29.4313 87.5548 28.1402 87.5594Z" fill="#EBEBEB"/>
<path d="M94.6938 39.0061V33.382C94.6938 32.0251 95.7668 30.9126 97.1226 30.8605C97.1398 30.8599 97.1564 30.8593 97.1736 30.8588C98.6026 30.805 99.7901 31.95 99.7901 33.3803V39.0061C99.7901 40.2972 98.649 41.3438 97.2423 41.3438C95.8355 41.3438 94.6938 40.2972 94.6938 39.0061Z" fill="#EBEBEB"/>
<path d="M133.061 45.0408L136.083 40.2972C136.811 39.1527 138.314 38.7914 139.486 39.4756C139.501 39.4842 139.515 39.4928 139.53 39.5014C140.764 40.2234 141.15 41.8277 140.382 43.0334L137.359 47.7781C136.666 48.8671 135.141 49.1368 133.954 48.3805C132.768 47.6241 132.367 46.1286 133.061 45.0396L133.061 45.0408Z" fill="#EBEBEB"/>
<path d="M153.822 64.6958L158.588 61.7105C159.738 60.9903 161.25 61.3092 162.014 62.4308C162.024 62.4451 162.033 62.4589 162.043 62.4732C162.847 63.6555 162.507 65.2701 161.295 66.0287L156.527 69.0151C155.433 69.7004 153.941 69.2888 153.194 68.0967C152.447 66.9041 152.728 65.3817 153.822 64.6964L153.822 64.6958Z" fill="#EBEBEB"/>
<path d="M164.861 87.5594L170.485 87.5794C171.842 87.5846 172.95 88.6615 172.997 90.0173C172.998 90.0345 172.998 90.0511 172.999 90.0683C173.047 91.4974 171.898 92.6808 170.468 92.6757L164.842 92.6556C163.551 92.651 162.509 91.5059 162.514 90.0992C162.519 88.6919 163.569 87.5548 164.861 87.5594Z" fill="#EBEBEB"/>
<path d="M138.871 62.0575C130.955 54.142 117.456 59.7347 117.464 70.9154C117.472 81.9221 130.964 87.7243 138.902 79.7865C143.702 74.9862 143.924 67.1114 138.871 62.0575Z" fill="#EBEBEB"/>
<path d="M54.0057 62.0266C49.2054 66.8269 48.9833 74.7017 54.0366 79.7556C61.9532 87.6722 75.451 82.0761 75.4436 70.8977C75.4361 60.0845 62.0717 53.9611 54.0057 62.0266Z" fill="#EBEBEB"/>
<path d="M106.306 77.0654C111.748 71.6235 111.748 62.8006 106.306 57.3588C100.865 51.9169 92.0417 51.9169 86.5999 57.3588C81.1581 62.8006 81.1581 71.6235 86.5999 77.0654C92.0417 82.5072 100.865 82.5072 106.306 77.0654Z" fill="#EBEBEB"/>
<path d="M117.984 124.883L104.569 123.006L98.5099 110.892C97.6293 109.131 95.1101 109.144 94.2478 110.914L88.3179 123.093L74.9237 125.112C72.9771 125.405 72.211 127.806 73.6281 129.172L83.378 138.575L81.1594 151.938C80.9155 153.406 82.0531 154.703 83.504 154.703C84.3513 154.703 83.7112 154.909 96.5764 148.057L108.599 154.297C110.347 155.204 112.377 153.712 112.034 151.774L109.673 138.435L119.323 128.929C120.725 127.547 119.933 125.155 117.984 124.883V124.883Z" fill="#EBEBEB"/>
<path d="M71.7744 117.586L61.76 116.185L57.2369 107.142C56.5796 105.828 54.6987 105.837 54.0552 107.159L49.6283 116.25L39.6293 117.757C38.1762 117.977 37.6042 119.768 38.6622 120.788L45.9405 127.808L44.2841 137.783C44.102 138.879 44.9511 139.848 46.0344 139.848C46.6585 139.848 46.1661 140.014 55.7929 134.887L64.7681 139.544C66.0724 140.222 67.5885 139.108 67.332 137.661L65.5697 127.704L72.7729 120.607C73.8196 119.575 73.2293 117.79 71.7739 117.586H71.7744Z" fill="#EBEBEB"/>
<path d="M128.966 113.194L132.647 105.633C134.487 101.855 139.93 101.858 141.793 105.582L145.556 113.105C154.656 114.378 154.438 114.254 155.461 114.777C155.461 111.676 155.615 107.845 153.508 102.799C147.699 88.8866 131.474 83.5372 118.73 89.8066C129.957 100.374 128.752 113.226 128.967 113.194H128.966Z" fill="#EBEBEB"/>
<path d="M127.618 139.847C126.534 139.847 125.687 138.876 125.868 137.782L127.524 127.807L120.246 120.787C119.188 119.767 119.76 117.975 121.213 117.756L131.212 116.249L135.639 107.158C136.283 105.836 138.164 105.827 138.821 107.141L143.344 116.185L153.358 117.586C154.814 117.789 155.405 119.575 154.358 120.606L147.154 127.703L148.917 137.66C149.173 139.108 147.658 140.221 146.353 139.544L137.377 134.886C127.762 140.007 128.247 139.847 127.619 139.847L127.618 139.847Z" fill="#EBEBEB"/>
<path d="M47.3835 113.194L51.065 105.633C52.8634 101.94 58.3198 101.802 60.2103 105.583L63.9542 113.068C64.055 104.22 67.733 95.8711 74.1765 89.8061C57.8755 81.787 37.4458 93.1618 37.4458 112.575V115.002C38.5033 114.428 38.3533 114.554 47.3829 113.193L47.3835 113.194Z" fill="#EBEBEB"/>
<path d="M100.535 85.6041C83.0173 83.2012 68.2261 96.3715 68.2261 113.701C72.1623 114.252 73.6584 114.181 75.1745 115.728C76.4066 116.983 76.8664 118.713 76.5601 120.319L85.3109 119L90.2423 108.872C92.7059 103.812 99.9974 103.815 102.493 108.804L107.534 118.882L116.381 120.12C116.247 118.937 116.517 117.742 117.161 116.74C118.709 114.328 120.813 114.424 124.681 113.84C124.681 98.7017 113.761 87.4197 100.534 85.6047L100.535 85.6041Z" fill="#EBEBEB"/>
</g>
<defs>
<clipPath id="clip0_165_4">
<rect width="192" height="192" fill="white"/>
</clipPath>
</defs>
</svg>
