<svg width="192" height="192" viewBox="0 0 192 192" fill="none" xmlns="http://www.w3.org/2000/svg">
<g clip-path="url(#clip0_165_6)">
<circle cx="96" cy="96" r="96" fill="#F3D961"/>
<path fill-rule="evenodd" clip-rule="evenodd" d="M111.732 130.557C110.538 130.345 109.421 130.133 108.612 130.133C108.304 130.133 108.169 130.172 108.169 130.172C107.65 130.345 106.34 131.443 105.474 132.174C103.029 134.254 99.9672 136.853 95.7313 136.853C91.4954 136.853 88.434 134.254 85.9888 132.174C85.1223 131.443 83.8323 130.345 83.2932 130.172C83.2932 130.172 83.1584 130.133 82.8696 130.133C82.0609 130.133 80.9442 130.326 79.7504 130.557C78.2293 130.827 76.5157 131.135 74.7636 131.135C73.9934 131.135 73.281 131.058 72.5879 130.942V152.237C72.5879 155.607 74.9561 156.954 77.8635 155.26L90.475 147.828C93.3823 146.114 98.1188 146.114 101.026 147.828L113.638 155.26C116.545 156.974 118.913 155.607 118.913 152.237V130.942C118.22 131.058 117.508 131.135 116.738 131.135C114.985 131.135 113.272 130.827 111.751 130.557H111.732Z" fill="#917C1E"/>
<path d="M96.1239 100.557C105.405 100.347 112.758 92.6525 112.547 83.3716C112.336 74.0907 104.642 66.7378 95.3612 66.9484C86.0803 67.159 78.7274 74.8534 78.938 84.1343C79.1486 93.4152 86.843 100.768 96.1239 100.557Z" fill="#917C1E"/>
<path fill-rule="evenodd" clip-rule="evenodd" d="M136.954 94.7828C137.955 91.0475 143.462 87.7936 143.462 83.731C143.462 79.6683 137.955 76.4144 136.954 72.6791C135.914 68.8283 139.033 63.2446 137.07 59.8558C135.086 56.4286 128.694 56.3323 125.902 53.5598C123.13 50.7872 123.033 44.3755 119.606 42.3924C116.217 40.4284 110.653 43.5476 106.783 42.5079C103.048 41.5067 99.7936 36 95.731 36C91.6683 36 88.4144 41.5067 84.6791 42.5079C80.8283 43.5476 75.2446 40.4284 71.8558 42.3924C68.4286 44.3755 68.3323 50.7679 65.5598 53.5598C62.7872 56.3323 56.3755 56.4286 54.3924 59.8558C52.4284 63.2446 55.5476 68.809 54.5079 72.6791C53.5067 76.4144 48 79.6683 48 83.731C48 87.7936 53.5067 91.0475 54.5079 94.7828C55.5476 98.6336 52.4284 104.217 54.3924 107.606C56.3755 111.033 62.7679 111.13 65.5598 113.902C68.3516 116.675 68.4286 123.086 71.8558 125.07C75.2446 127.033 80.809 123.914 84.6791 124.954C88.4144 125.955 91.6683 131.462 95.731 131.462C99.7936 131.462 103.048 125.955 106.783 124.954C110.634 123.914 116.217 127.033 119.606 125.07C123.033 123.086 123.13 116.694 125.902 113.902C128.675 111.13 135.086 111.033 137.07 107.606C139.033 104.217 135.914 98.6529 136.954 94.7828ZM95.7502 106.894C82.9847 106.894 72.5875 96.4964 72.5875 83.731C72.5875 70.9655 82.9847 60.5683 95.7502 60.5683C108.516 60.5683 118.913 70.9655 118.913 83.731C118.913 96.4964 108.516 106.894 95.7502 106.894Z" fill="#917C1E"/>
</g>
<defs>
<clipPath id="clip0_165_6">
<rect width="192" height="192" fill="white"/>
</clipPath>
</defs>
</svg>
