<svg width="192" height="192" viewBox="0 0 192 192" fill="none" xmlns="http://www.w3.org/2000/svg">
<g clip-path="url(#clip0_165_5)">
<circle cx="96" cy="96" r="96" fill="#5B005C"/>
<path d="M153.99 106.863V90.7356C153.99 90.3337 153.89 89.9569 153.789 89.5801L146.027 64.2587C145.525 62.5757 143.967 61.4453 142.234 61.4453H115.079V55.969C115.079 53.7584 113.295 52 111.11 52H47.4298V59.938H107.141V105.356H47.4298V119.071C47.4298 120.855 48.8867 122.287 50.6452 122.287H57.9552C57.905 122.839 57.8798 123.392 57.8798 123.97C57.8798 133.214 65.416 140.725 74.6602 140.725C83.9045 140.725 91.4407 133.214 91.4407 123.97C91.4407 123.417 91.4155 122.839 91.3653 122.287H113.27C113.22 122.839 113.17 123.442 113.17 124.02C113.17 133.264 120.706 140.775 129.925 140.775C139.144 140.775 146.705 133.264 146.705 124.02C146.705 123.442 146.68 122.865 146.605 122.287H152.785C154.568 122.287 156 120.83 156 119.071V109.827C156 108.496 155.171 107.34 154.015 106.863H153.99ZM74.6351 131.657C70.3898 131.657 66.9483 128.215 66.9483 123.97C66.9483 119.725 70.3898 116.283 74.6351 116.283C78.8805 116.283 82.322 119.725 82.322 123.97C82.322 128.215 78.8805 131.657 74.6351 131.657ZM129.9 131.707C125.655 131.707 122.213 128.265 122.213 124.02C122.213 119.775 125.655 116.333 129.9 116.333C134.145 116.333 137.587 119.775 137.587 124.02C137.587 128.265 134.145 131.707 129.9 131.707ZM124.625 86.7666V69.4335H139.32L144.646 86.7666H124.65H124.625ZM94.7565 72.2219C94.7565 70.0113 92.973 68.2529 90.7875 68.2529H39.969C37.7835 68.2529 36 70.0364 36 72.2219C36 74.4074 37.7835 76.1909 39.969 76.1909H90.7875C92.973 76.1909 94.7565 74.4074 94.7565 72.2219ZM90.6368 82.672H51.4239C49.2384 82.672 47.4549 84.4555 47.4549 86.641C47.4549 88.8265 49.2384 90.61 51.4239 90.61H90.6368C92.8223 90.61 94.6058 88.8265 94.6058 86.641C94.6058 84.4555 92.8223 82.672 90.6368 82.672Z" fill="#EBEBEB"/>
</g>
<defs>
<clipPath id="clip0_165_5">
<rect width="192" height="192" fill="white"/>
</clipPath>
</defs>
</svg>
